<svg xmlns="http://www.w3.org/2000/svg" xmlns:xlink="http://www.w3.org/1999/xlink" width="1080" zoomAndPan="magnify" viewBox="0 0 810 809.999993" height="1080" preserveAspectRatio="xMidYMid meet" version="1.2"><g id="1a276ebb71"><path style=" stroke:none;fill-rule:nonzero;fill:#b0e638;fill-opacity:1;" d="M 495.132812 377.460938 C 489.914062 407.296875 484.699219 437.132812 479.480469 466.960938 C 430.570312 466.988281 381.660156 467.015625 332.753906 467.039062 C 340.953125 430.84375 348.515625 394.480469 355.449219 357.960938 C 366.203125 357.519531 376.949219 357.078125 387.695312 356.636719 C 424.851562 355.109375 462.003906 353.589844 499.164062 352.0625 C 497.890625 360.707031 496.574219 369.226562 495.132812 377.460938 Z M 773.941406 280.101562 C 764.882812 255.71875 734.011719 251.808594 708.988281 251.820312 C 708.980469 251.820312 708.976562 251.820312 708.96875 251.820312 C 676.871094 251.839844 644.773438 251.851562 612.679688 251.867188 C 617.917969 218.070312 622.664062 184.175781 626.816406 150.183594 C 630.738281 118.121094 651.359375 49.328125 619.613281 28.164062 C 589.09375 7.824219 565.652344 48.433594 553.746094 74.59375 C 530.710938 125.207031 520.207031 188.886719 512.046875 251.917969 C 465.9375 251.941406 419.828125 251.972656 373.722656 251.988281 C 378.964844 218.148438 383.726562 184.210938 387.882812 150.183594 C 391.800781 118.121094 412.417969 49.328125 380.679688 28.164062 C 350.15625 7.824219 326.710938 48.433594 314.804688 74.59375 C 291.375 126.097656 280.898438 191.121094 272.6875 255.230469 C 227.996094 259.9375 186.066406 271.0625 142.589844 296.480469 C 117.226562 311.300781 60.019531 341.59375 95.695312 366.777344 C 118.710938 383.027344 196.398438 364.484375 223.734375 363.367188 C 235.40625 362.882812 247.074219 362.40625 258.746094 361.929688 C 257.925781 367.175781 257.09375 372.382812 256.199219 377.460938 C 250.78125 408.457031 245.355469 439.449219 239.929688 470.433594 C 195.832031 475.238281 154.382812 486.410156 111.417969 511.523438 C 86.058594 526.34375 28.847656 556.632812 64.523438 581.820312 C 87.539062 598.070312 165.230469 579.527344 192.5625 578.410156 C 202.125 578.011719 211.683594 577.617188 221.25 577.226562 C 212.128906 629.308594 203.019531 681.394531 193.90625 733.476562 C 190.007812 755.761719 189.664062 785.679688 208.746094 793.488281 C 229.792969 802.113281 246.945312 773.53125 254.648438 750.015625 C 254.648438 750.011719 254.648438 750.011719 254.648438 750.011719 C 273.695312 691.898438 291.007812 633.085938 306.648438 573.726562 C 323.273438 573.042969 339.898438 572.363281 356.527344 571.679688 C 391.65625 570.238281 426.78125 568.796875 461.914062 567.355469 C 452.222656 622.726562 442.53125 678.105469 432.847656 733.476562 C 428.949219 755.761719 428.597656 785.679688 447.679688 793.488281 C 468.734375 802.113281 485.875 773.53125 493.589844 750.015625 C 493.589844 750.011719 493.589844 750.011719 493.589844 750.011719 C 513.6875 688.664062 531.894531 626.546875 548.199219 563.816406 C 586.339844 562.253906 624.480469 560.6875 662.613281 559.125 C 682.414062 558.308594 703.0625 557.253906 720.308594 547.054688 C 737.554688 536.855469 749.949219 514.457031 742.773438 495.144531 C 733.71875 470.761719 702.84375 466.84375 677.820312 466.863281 C 677.8125 466.863281 677.808594 466.863281 677.800781 466.863281 C 642.441406 466.882812 607.078125 466.894531 571.722656 466.917969 C 580.648438 427.5 588.84375 387.878906 596.265625 348.082031 C 628.773438 346.746094 661.28125 345.414062 693.785156 344.082031 C 713.578125 343.265625 734.234375 342.210938 751.476562 332.011719 C 768.730469 321.8125 781.117188 299.414062 773.941406 280.101562 "/></g></svg>