<svg xmlns="http://www.w3.org/2000/svg" xmlns:xlink="http://www.w3.org/1999/xlink" width="1080" zoomAndPan="magnify" viewBox="0 0 810 809.999993" height="1080" preserveAspectRatio="xMidYMid meet" version="1.2"><defs><clipPath id="8e1e8dd350"><path d="M 242 185 L 601 185 L 601 371 L 242 371 Z M 242 185 "/></clipPath><clipPath id="074b2b84fd"><path d="M 366.050781 448.320312 L 242.640625 270.660156 L 477.902344 107.234375 L 601.3125 284.894531 Z M 366.050781 448.320312 "/></clipPath><clipPath id="86a53fa4fc"><path d="M 311.714844 370.101562 L 242.640625 270.660156 L 531.628906 185.875 L 600.707031 285.316406 Z M 311.714844 370.101562 "/></clipPath><clipPath id="3497ea3c8b"><path d="M 0.480469 0.640625 L 358.800781 0.640625 L 358.800781 185.199219 L 0.480469 185.199219 Z M 0.480469 0.640625 "/></clipPath><clipPath id="670678d45a"><path d="M 124.050781 263.320312 L 0.640625 85.660156 L 235.902344 -77.765625 L 359.3125 99.894531 Z M 124.050781 263.320312 "/></clipPath><clipPath id="62ed8ca692"><path d="M 69.714844 185.101562 L 0.640625 85.660156 L 289.628906 0.875 L 358.707031 100.316406 Z M 69.714844 185.101562 "/></clipPath><clipPath id="dbff11ebcc"><rect x="0" width="359" y="0" height="186"/></clipPath><clipPath id="9abaf2fa3b"><path d="M 350 269 L 621 269 L 621 508 L 350 508 Z M 350 269 "/></clipPath><clipPath id="ed016b0c14"><path d="M 338.304688 472.128906 L 365.425781 269.992188 L 633.097656 305.90625 L 605.976562 508.042969 Z M 338.304688 472.128906 "/></clipPath><clipPath id="1f1b6ba89a"><path d="M 350.246094 383.132812 L 365.425781 269.992188 L 620.46875 394.808594 L 605.285156 507.949219 Z M 350.246094 383.132812 "/></clipPath><clipPath id="0ae1150039"><path d="M 0.238281 0.878906 L 270.480469 0.878906 L 270.480469 238.960938 L 0.238281 238.960938 Z M 0.238281 0.878906 "/></clipPath><clipPath id="cbbe39c08c"><path d="M -11.695312 203.128906 L 15.425781 0.992188 L 283.097656 36.90625 L 255.976562 239.042969 Z M -11.695312 203.128906 "/></clipPath><clipPath id="f1d41737d6"><path d="M 0.246094 114.132812 L 15.425781 0.992188 L 270.46875 125.808594 L 255.285156 238.949219 Z M 0.246094 114.132812 "/></clipPath><clipPath id="2403331e10"><rect x="0" width="271" y="0" height="239"/></clipPath><clipPath id="627680ac86"><path d="M 1.59375 1 L 518.601562 1 L 518.601562 538.921875 L 1.59375 538.921875 Z M 1.59375 1 "/></clipPath><clipPath id="f61f283532"><path d="M 245 269 L 518.601562 269 L 518.601562 538.921875 L 245 538.921875 Z M 245 269 "/></clipPath><clipPath id="2660518f47"><rect x="0" width="634" y="0" height="539"/></clipPath></defs><g id="2a2cf3076f"><g transform="matrix(1,0,0,1,88,135)"><g clip-path="url(#2660518f47)"><g clip-rule="nonzero" clip-path="url(#8e1e8dd350)"><g clip-rule="nonzero" clip-path="url(#074b2b84fd)"><g clip-rule="nonzero" clip-path="url(#86a53fa4fc)"><g transform="matrix(1,0,0,1,242,185)"><g id="1f1024f772" clip-path="url(#dbff11ebcc)"><g clip-rule="nonzero" clip-path="url(#3497ea3c8b)"><g clip-rule="nonzero" clip-path="url(#670678d45a)"><g clip-rule="nonzero" clip-path="url(#62ed8ca692)"><path style=" stroke:none;fill-rule:nonzero;fill:#5e1ee6;fill-opacity:1;" d="M 124.050781 263.320312 L 0.640625 85.660156 L 235.207031 -77.28125 L 358.621094 100.378906 Z M 124.050781 263.320312 "/></g></g></g></g></g></g></g></g><g clip-rule="nonzero" clip-path="url(#9abaf2fa3b)"><g clip-rule="nonzero" clip-path="url(#ed016b0c14)"><g clip-rule="nonzero" clip-path="url(#1f1b6ba89a)"><g transform="matrix(1,0,0,1,350,269)"><g id="328d1e9497" clip-path="url(#2403331e10)"><g clip-rule="nonzero" clip-path="url(#0ae1150039)"><g clip-rule="nonzero" clip-path="url(#cbbe39c08c)"><g clip-rule="nonzero" clip-path="url(#f1d41737d6)"><path style=" stroke:none;fill-rule:nonzero;fill:#5e1ee6;fill-opacity:1;" d="M -11.695312 203.128906 L 15.425781 0.992188 L 282.308594 36.800781 L 255.1875 238.9375 Z M -11.695312 203.128906 "/></g></g></g></g></g></g></g></g><g clip-rule="nonzero" clip-path="url(#627680ac86)"><path style=" stroke:none;fill-rule:nonzero;fill:#5e1ee6;fill-opacity:1;" d="M 268.980469 108.324219 L 411.402344 108.324219 C 470.554688 108.324219 518.648438 60.363281 518.648438 1.078125 L 270.316406 1.078125 C 121.898438 1.078125 1.59375 121.515625 1.59375 269.929688 C 1.59375 418.34375 121.898438 538.648438 270.316406 538.648438 L 354.515625 538.914062 L 292.695312 431.800781 L 268.980469 431.800781 L 268.980469 431.535156 C 179.71875 431.535156 107.511719 359.191406 107.511719 269.929688 C 107.511719 180.667969 179.851562 108.324219 269.117188 108.324219 Z M 268.980469 108.324219 "/></g><g clip-rule="nonzero" clip-path="url(#f61f283532)"><path style=" stroke:none;fill-rule:nonzero;fill:#5e1ee6;fill-opacity:1;" d="M 518.78125 538.914062 L 366.105469 269.929688 L 245.933594 269.929688 L 398.613281 538.914062 Z M 518.78125 538.914062 "/></g></g></g></g></svg>