<svg xmlns="http://www.w3.org/2000/svg" xmlns:xlink="http://www.w3.org/1999/xlink" width="1080" zoomAndPan="magnify" viewBox="0 0 810 809.999993" height="1080" preserveAspectRatio="xMidYMid meet" version="1.2"><defs><clipPath id="95aeb4b7cd"><path d="M 99 76 L 246 76 L 246 152 L 99 152 Z M 99 76 "/></clipPath><clipPath id="536248650a"><path d="M 150.109375 183.820312 L 99.714844 111.269531 L 195.785156 44.53125 L 246.183594 117.082031 Z M 150.109375 183.820312 "/></clipPath><clipPath id="051a7f4858"><path d="M 127.921875 151.878906 L 99.714844 111.269531 L 217.726562 76.648438 L 245.933594 117.253906 Z M 127.921875 151.878906 "/></clipPath><clipPath id="d12bdea866"><path d="M 0.558594 0.558594 L 146.960938 0.558594 L 146.960938 75.921875 L 0.558594 75.921875 Z M 0.558594 0.558594 "/></clipPath><clipPath id="5c8047dd74"><path d="M 51.109375 107.820312 L 0.714844 35.269531 L 96.785156 -31.46875 L 147.183594 41.082031 Z M 51.109375 107.820312 "/></clipPath><clipPath id="5756b01c86"><path d="M 28.921875 75.878906 L 0.714844 35.269531 L 118.726562 0.648438 L 146.933594 41.253906 Z M 28.921875 75.878906 "/></clipPath><clipPath id="661cdefed7"><rect x="0" width="147" y="0" height="76"/></clipPath><clipPath id="4a35466933"><path d="M 143 110 L 255 110 L 255 209 L 143 209 Z M 143 110 "/></clipPath><clipPath id="5c8374183b"><path d="M 138.78125 193.542969 L 149.855469 110.996094 L 259.164062 125.664062 L 248.085938 208.207031 Z M 138.78125 193.542969 "/></clipPath><clipPath id="a8e62dce73"><path d="M 143.65625 157.199219 L 149.855469 110.996094 L 254.003906 161.96875 L 247.804688 208.171875 Z M 143.65625 157.199219 "/></clipPath><clipPath id="8ea93d4509"><path d="M 0.480469 0.878906 L 111.121094 0.878906 L 111.121094 98.320312 L 0.480469 98.320312 Z M 0.480469 0.878906 "/></clipPath><clipPath id="6b75ca40fb"><path d="M -4.21875 83.542969 L 6.855469 0.996094 L 116.164062 15.664062 L 105.085938 98.207031 Z M -4.21875 83.542969 "/></clipPath><clipPath id="a125760e4c"><path d="M 0.65625 47.199219 L 6.855469 0.996094 L 111.003906 51.96875 L 104.804688 98.171875 Z M 0.65625 47.199219 "/></clipPath><clipPath id="b8ab01a42f"><rect x="0" width="112" y="0" height="99"/></clipPath><clipPath id="fb9515c147"><path d="M 1.28125 1 L 212.40625 1 L 212.40625 221 L 1.28125 221 Z M 1.28125 1 "/></clipPath><clipPath id="36c3bd5872"><path d="M 101 110 L 212.40625 110 L 212.40625 221 L 101 221 Z M 101 110 "/></clipPath><clipPath id="0962679f73"><path d="M 299 2 L 603.078125 2 L 603.078125 219 L 299 219 Z M 299 2 "/></clipPath><clipPath id="f7c0565ce1"><rect x="0" width="305" y="0" height="217"/></clipPath><clipPath id="65ad50c4e1"><rect x="0" width="604" y="0" height="222"/></clipPath></defs><g id="93d92ee796"><g transform="matrix(1,0,0,1,103,294)"><g clip-path="url(#65ad50c4e1)"><g clip-rule="nonzero" clip-path="url(#95aeb4b7cd)"><g clip-rule="nonzero" clip-path="url(#536248650a)"><g clip-rule="nonzero" clip-path="url(#051a7f4858)"><g transform="matrix(1,0,0,1,99,76)"><g id="2437624836" clip-path="url(#661cdefed7)"><g clip-rule="nonzero" clip-path="url(#d12bdea866)"><g clip-rule="nonzero" clip-path="url(#5c8047dd74)"><g clip-rule="nonzero" clip-path="url(#5756b01c86)"><path style=" stroke:none;fill-rule:nonzero;fill:#5e1ee6;fill-opacity:1;" d="M 51.109375 107.820312 L 0.714844 35.269531 L 96.503906 -31.269531 L 146.898438 41.28125 Z M 51.109375 107.820312 "/></g></g></g></g></g></g></g></g><g clip-rule="nonzero" clip-path="url(#4a35466933)"><g clip-rule="nonzero" clip-path="url(#5c8374183b)"><g clip-rule="nonzero" clip-path="url(#a8e62dce73)"><g transform="matrix(1,0,0,1,143,110)"><g id="62c8e093c0" clip-path="url(#b8ab01a42f)"><g clip-rule="nonzero" clip-path="url(#8ea93d4509)"><g clip-rule="nonzero" clip-path="url(#6b75ca40fb)"><g clip-rule="nonzero" clip-path="url(#a125760e4c)"><path style=" stroke:none;fill-rule:nonzero;fill:#5e1ee6;fill-opacity:1;" d="M -4.21875 83.542969 L 6.855469 0.996094 L 115.839844 15.621094 L 104.765625 98.164062 Z M -4.21875 83.542969 "/></g></g></g></g></g></g></g></g><g clip-rule="nonzero" clip-path="url(#fb9515c147)"><path style=" stroke:none;fill-rule:nonzero;fill:#5e1ee6;fill-opacity:1;" d="M 110.472656 44.976562 L 168.628906 44.976562 C 192.785156 44.976562 212.425781 25.390625 212.425781 1.179688 L 111.015625 1.179688 C 50.40625 1.179688 1.28125 50.363281 1.28125 110.972656 C 1.28125 171.578125 50.40625 220.707031 111.015625 220.707031 L 145.398438 220.816406 L 120.15625 177.074219 L 110.472656 177.074219 L 110.472656 176.964844 C 74.019531 176.964844 44.53125 147.421875 44.53125 110.972656 C 44.53125 74.519531 74.074219 44.976562 110.523438 44.976562 Z M 110.472656 44.976562 "/></g><g clip-rule="nonzero" clip-path="url(#36c3bd5872)"><path style=" stroke:none;fill-rule:nonzero;fill:#5e1ee6;fill-opacity:1;" d="M 212.480469 220.816406 L 150.132812 110.972656 L 101.058594 110.972656 L 163.40625 220.816406 Z M 212.480469 220.816406 "/></g><g clip-rule="nonzero" clip-path="url(#0962679f73)"><g transform="matrix(1,0,0,1,299,2)"><g id="d162678b5b" clip-path="url(#f7c0565ce1)"><g style="fill:#5e1ee6;fill-opacity:1;"><g transform="translate(0.788318, 102.588663)"><path style="stroke:none" d="M 57.96875 -52.3125 C 56.9375 -55.9375 55.03125 -58.769531 52.25 -60.8125 C 49.46875 -62.863281 45.976562 -63.890625 41.78125 -63.890625 C 35.863281 -63.890625 31.070312 -61.707031 27.40625 -57.34375 C 23.75 -52.976562 21.921875 -46.769531 21.921875 -38.71875 C 21.921875 -30.644531 23.71875 -24.40625 27.3125 -20 C 30.914062 -15.59375 35.789062 -13.390625 41.9375 -13.390625 C 47.363281 -13.390625 51.628906 -14.804688 54.734375 -17.640625 C 57.847656 -20.472656 59.457031 -24.28125 59.5625 -29.0625 L 42.953125 -29.0625 L 42.953125 -41.359375 L 75.296875 -41.359375 L 75.296875 -31.625 C 75.296875 -24.851562 73.859375 -19.019531 70.984375 -14.125 C 68.117188 -9.238281 64.175781 -5.484375 59.15625 -2.859375 C 54.132812 -0.242188 48.367188 1.0625 41.859375 1.0625 C 34.609375 1.0625 28.238281 -0.539062 22.75 -3.75 C 17.269531 -6.957031 13 -11.523438 9.9375 -17.453125 C 6.882812 -23.378906 5.359375 -30.421875 5.359375 -38.578125 C 5.359375 -46.929688 6.957031 -54.078125 10.15625 -60.015625 C 13.351562 -65.953125 17.679688 -70.492188 23.140625 -73.640625 C 28.597656 -76.785156 34.722656 -78.359375 41.515625 -78.359375 C 47.347656 -78.359375 52.628906 -77.25 57.359375 -75.03125 C 62.097656 -72.8125 65.972656 -69.742188 68.984375 -65.828125 C 72.003906 -61.921875 73.867188 -57.414062 74.578125 -52.3125 Z M 57.96875 -52.3125 "/></g></g><g style="fill:#5e1ee6;fill-opacity:1;"><g transform="translate(81.617695, 102.588663)"><path style="stroke:none" d="M 32.828125 1.125 C 26.890625 1.125 21.769531 -0.0859375 17.46875 -2.515625 C 13.164062 -4.941406 9.859375 -8.382812 7.546875 -12.84375 C 5.234375 -17.3125 4.078125 -22.601562 4.078125 -28.71875 C 4.078125 -34.6875 5.234375 -39.921875 7.546875 -44.421875 C 9.859375 -48.921875 13.125 -52.425781 17.34375 -54.9375 C 21.5625 -57.457031 26.507812 -58.71875 32.1875 -58.71875 C 37.300781 -58.71875 41.914062 -57.632812 46.03125 -55.46875 C 50.144531 -53.3125 53.40625 -50.050781 55.8125 -45.6875 C 58.226562 -41.320312 59.4375 -35.851562 59.4375 -29.28125 L 59.4375 -24.875 L 19.96875 -24.875 L 19.96875 -24.828125 C 19.96875 -20.503906 21.148438 -17.097656 23.515625 -14.609375 C 25.878906 -12.117188 29.070312 -10.875 33.09375 -10.875 C 35.789062 -10.875 38.117188 -11.4375 40.078125 -12.5625 C 42.046875 -13.695312 43.429688 -15.375 44.234375 -17.59375 L 59.109375 -16.609375 C 57.972656 -11.222656 55.101562 -6.921875 50.5 -3.703125 C 45.894531 -0.484375 40.003906 1.125 32.828125 1.125 Z M 19.96875 -34.828125 L 44.3125 -34.828125 C 44.28125 -38.273438 43.171875 -41.117188 40.984375 -43.359375 C 38.796875 -45.597656 35.953125 -46.71875 32.453125 -46.71875 C 28.878906 -46.71875 25.945312 -45.5625 23.65625 -43.25 C 21.375 -40.9375 20.144531 -38.128906 19.96875 -34.828125 Z M 19.96875 -34.828125 "/></g></g><g style="fill:#5e1ee6;fill-opacity:1;"><g transform="translate(145.12649, 102.588663)"><path style="stroke:none" d="M 6.421875 0 L 6.421875 -57.96875 L 21.734375 -57.96875 L 21.734375 -47.75 L 22.421875 -47.75 C 23.628906 -51.164062 25.644531 -53.847656 28.46875 -55.796875 C 31.300781 -57.742188 34.671875 -58.71875 38.578125 -58.71875 C 42.546875 -58.71875 45.925781 -57.726562 48.71875 -55.75 C 51.519531 -53.78125 53.382812 -51.113281 54.3125 -47.75 L 54.921875 -47.75 C 56.097656 -51.0625 58.238281 -53.71875 61.34375 -55.71875 C 64.457031 -57.71875 68.140625 -58.71875 72.390625 -58.71875 C 77.796875 -58.71875 82.191406 -57 85.578125 -53.5625 C 88.960938 -50.132812 90.65625 -45.273438 90.65625 -38.984375 L 90.65625 0 L 74.609375 0 L 74.609375 -35.8125 C 74.609375 -39.03125 73.753906 -41.445312 72.046875 -43.0625 C 70.335938 -44.675781 68.203125 -45.484375 65.640625 -45.484375 C 62.710938 -45.484375 60.429688 -44.550781 58.796875 -42.6875 C 57.160156 -40.820312 56.34375 -38.394531 56.34375 -35.40625 L 56.34375 0 L 40.765625 0 L 40.765625 -36.15625 C 40.765625 -39 39.953125 -41.265625 38.328125 -42.953125 C 36.703125 -44.640625 34.566406 -45.484375 31.921875 -45.484375 C 29.253906 -45.484375 27.015625 -44.503906 25.203125 -42.546875 C 23.398438 -40.597656 22.5 -38.015625 22.5 -34.796875 L 22.5 0 Z M 6.421875 0 "/></g></g><g style="fill:#5e1ee6;fill-opacity:1;"><g transform="translate(242.031176, 102.588663)"><path style="stroke:none" d="M 22.953125 1.09375 C 17.410156 1.09375 12.816406 -0.351562 9.171875 -3.25 C 5.523438 -6.144531 3.703125 -10.457031 3.703125 -16.1875 C 3.703125 -20.519531 4.71875 -23.914062 6.75 -26.375 C 8.789062 -28.84375 11.460938 -30.648438 14.765625 -31.796875 C 18.078125 -32.941406 21.644531 -33.691406 25.46875 -34.046875 C 30.507812 -34.546875 34.109375 -35.070312 36.265625 -35.625 C 38.429688 -36.175781 39.515625 -37.382812 39.515625 -39.25 L 39.515625 -39.484375 C 39.515625 -41.867188 38.765625 -43.710938 37.265625 -45.015625 C 35.773438 -46.328125 33.65625 -46.984375 30.90625 -46.984375 C 28.007812 -46.984375 25.707031 -46.351562 24 -45.09375 C 22.289062 -43.84375 21.160156 -42.25 20.609375 -40.3125 L 5.734375 -41.515625 C 6.835938 -46.796875 9.582031 -50.984375 13.96875 -54.078125 C 18.363281 -57.171875 24.035156 -58.71875 30.984375 -58.71875 C 35.285156 -58.71875 39.3125 -58.039062 43.0625 -56.6875 C 46.8125 -55.332031 49.835938 -53.210938 52.140625 -50.328125 C 54.441406 -47.441406 55.59375 -43.695312 55.59375 -39.09375 L 55.59375 0 L 40.34375 0 L 40.34375 -8.03125 L 39.890625 -8.03125 C 38.484375 -5.34375 36.375 -3.148438 33.5625 -1.453125 C 30.757812 0.242188 27.222656 1.09375 22.953125 1.09375 Z M 27.546875 -10 C 31.066406 -10 33.957031 -11.023438 36.21875 -13.078125 C 38.488281 -15.128906 39.625 -17.675781 39.625 -20.71875 L 39.625 -26.875 C 39 -26.445312 38.023438 -26.066406 36.703125 -25.734375 C 35.378906 -25.410156 33.96875 -25.128906 32.46875 -24.890625 C 30.976562 -24.648438 29.640625 -24.441406 28.453125 -24.265625 C 25.640625 -23.867188 23.367188 -23.078125 21.640625 -21.890625 C 19.921875 -20.703125 19.0625 -18.976562 19.0625 -16.71875 C 19.0625 -14.5 19.859375 -12.820312 21.453125 -11.6875 C 23.054688 -10.5625 25.085938 -10 27.546875 -10 Z M 27.546875 -10 "/></g></g><g style="fill:#5e1ee6;fill-opacity:1;"><g transform="translate(0.774007, 190.51868)"><path style="stroke:none" d="M 71.375 -77.296875 L 71.375 0 L 57.25 0 L 23.625 -48.65625 L 23.0625 -48.65625 L 23.0625 0 L 6.71875 0 L 6.71875 -77.296875 L 21.0625 -77.296875 L 54.421875 -28.6875 L 55.109375 -28.6875 L 55.109375 -77.296875 Z M 71.375 -77.296875 "/></g></g><g style="fill:#5e1ee6;fill-opacity:1;"><g transform="translate(78.886429, 190.51868)"><path style="stroke:none" d="M 43.59375 -24.6875 L 43.59375 -57.96875 L 59.671875 -57.96875 L 59.671875 0 L 44.234375 0 L 44.234375 -10.53125 L 43.625 -10.53125 C 42.320312 -7.132812 40.15625 -4.40625 37.125 -2.34375 C 34.09375 -0.28125 30.398438 0.75 26.046875 0.75 C 20.203125 0.75 15.472656 -1.191406 11.859375 -5.078125 C 8.253906 -8.960938 6.441406 -14.289062 6.421875 -21.0625 L 6.421875 -57.96875 L 22.5 -57.96875 L 22.5 -23.921875 C 22.519531 -20.503906 23.4375 -17.800781 25.25 -15.8125 C 27.0625 -13.820312 29.488281 -12.828125 32.53125 -12.828125 C 35.425781 -12.828125 38 -13.832031 40.25 -15.84375 C 42.5 -17.863281 43.613281 -20.8125 43.59375 -24.6875 Z M 43.59375 -24.6875 "/></g></g><g style="fill:#5e1ee6;fill-opacity:1;"><g transform="translate(144.961236, 190.51868)"><path style="stroke:none" d="M 54.65625 -41.4375 L 39.9375 -40.53125 C 39.53125 -42.394531 38.507812 -43.992188 36.875 -45.328125 C 35.238281 -46.660156 33.023438 -47.328125 30.234375 -47.328125 C 27.742188 -47.328125 25.632812 -46.804688 23.90625 -45.765625 C 22.1875 -44.722656 21.335938 -43.332031 21.359375 -41.59375 C 21.335938 -40.207031 21.882812 -39.035156 23 -38.078125 C 24.125 -37.117188 26.03125 -36.351562 28.71875 -35.78125 L 39.21875 -33.671875 C 50.363281 -31.378906 55.945312 -26.144531 55.96875 -17.96875 C 55.96875 -14.164062 54.851562 -10.828125 52.625 -7.953125 C 50.40625 -5.085938 47.359375 -2.859375 43.484375 -1.265625 C 39.609375 0.328125 35.164062 1.125 30.15625 1.125 C 22.476562 1.125 16.363281 -0.472656 11.8125 -3.671875 C 7.257812 -6.878906 4.601562 -11.253906 3.84375 -16.796875 L 19.65625 -17.625 C 20.164062 -15.257812 21.332031 -13.472656 23.15625 -12.265625 C 24.976562 -11.054688 27.320312 -10.453125 30.1875 -10.453125 C 33.007812 -10.453125 35.28125 -11.003906 37 -12.109375 C 38.726562 -13.222656 39.601562 -14.632812 39.625 -16.34375 C 39.550781 -19.207031 37.070312 -21.128906 32.1875 -22.109375 L 22.15625 -24.109375 C 10.9375 -26.347656 5.347656 -31.875 5.390625 -40.6875 C 5.367188 -46.269531 7.601562 -50.671875 12.09375 -53.890625 C 16.582031 -57.109375 22.539062 -58.71875 29.96875 -58.71875 C 37.289062 -58.71875 43.054688 -57.171875 47.265625 -54.078125 C 51.484375 -50.984375 53.945312 -46.769531 54.65625 -41.4375 Z M 54.65625 -41.4375 "/></g></g><g style="fill:#5e1ee6;fill-opacity:1;"><g transform="translate(204.65875, 190.51868)"><path style="stroke:none" d="M 22.953125 1.09375 C 17.410156 1.09375 12.816406 -0.351562 9.171875 -3.25 C 5.523438 -6.144531 3.703125 -10.457031 3.703125 -16.1875 C 3.703125 -20.519531 4.71875 -23.914062 6.75 -26.375 C 8.789062 -28.84375 11.460938 -30.648438 14.765625 -31.796875 C 18.078125 -32.941406 21.644531 -33.691406 25.46875 -34.046875 C 30.507812 -34.546875 34.109375 -35.070312 36.265625 -35.625 C 38.429688 -36.175781 39.515625 -37.382812 39.515625 -39.25 L 39.515625 -39.484375 C 39.515625 -41.867188 38.765625 -43.710938 37.265625 -45.015625 C 35.773438 -46.328125 33.65625 -46.984375 30.90625 -46.984375 C 28.007812 -46.984375 25.707031 -46.351562 24 -45.09375 C 22.289062 -43.84375 21.160156 -42.25 20.609375 -40.3125 L 5.734375 -41.515625 C 6.835938 -46.796875 9.582031 -50.984375 13.96875 -54.078125 C 18.363281 -57.171875 24.035156 -58.71875 30.984375 -58.71875 C 35.285156 -58.71875 39.3125 -58.039062 43.0625 -56.6875 C 46.8125 -55.332031 49.835938 -53.210938 52.140625 -50.328125 C 54.441406 -47.441406 55.59375 -43.695312 55.59375 -39.09375 L 55.59375 0 L 40.34375 0 L 40.34375 -8.03125 L 39.890625 -8.03125 C 38.484375 -5.34375 36.375 -3.148438 33.5625 -1.453125 C 30.757812 0.242188 27.222656 1.09375 22.953125 1.09375 Z M 27.546875 -10 C 31.066406 -10 33.957031 -11.023438 36.21875 -13.078125 C 38.488281 -15.128906 39.625 -17.675781 39.625 -20.71875 L 39.625 -26.875 C 39 -26.445312 38.023438 -26.066406 36.703125 -25.734375 C 35.378906 -25.410156 33.96875 -25.128906 32.46875 -24.890625 C 30.976562 -24.648438 29.640625 -24.441406 28.453125 -24.265625 C 25.640625 -23.867188 23.367188 -23.078125 21.640625 -21.890625 C 19.921875 -20.703125 19.0625 -18.976562 19.0625 -16.71875 C 19.0625 -14.5 19.859375 -12.820312 21.453125 -11.6875 C 23.054688 -10.5625 25.085938 -10 27.546875 -10 Z M 27.546875 -10 "/></g></g></g></g></g></g></g></g></svg>